<svg width="48" height="48" viewBox="0 0 48 48" fill="none" xmlns="http://www.w3.org/2000/svg">
  <rect width="48" height="48" rx="8" fill="#2196F3"/>
  <path d="M24 12C20.7 12 18 14.7 18 18V21H15C13.2 21 12 22.2 12 24V36C12 37.8 13.2 39 15 39H33C34.8 39 36 37.8 36 36V24C36 22.2 34.8 21 33 21H30V18C30 14.7 27.3 12 24 12ZM21 18C21 16.2 22.2 15 24 15C25.8 15 27 16.2 27 18V21H21V18Z" fill="white"/>
  <path d="M19.5 27H28.5" stroke="white" stroke-width="3" stroke-linecap="round"/>
  <path d="M19.5 31.5H28.5" stroke="white" stroke-width="3" stroke-linecap="round"/>
</svg>
